<svg width="125" height="125" viewBox="0 0 125 125" fill="none" xmlns="http://www.w3.org/2000/svg">
<path d="M111.607 0H13.3929C5.99888 0 0 5.99888 0 13.3929V111.607C0 119.001 5.99888 125 13.3929 125H111.607C119.001 125 125 119.001 125 111.607V13.3929C125 5.99888 119.001 0 111.607 0ZM77.3716 107.059C75.0279 107.478 74.1629 106.027 74.1629 104.827C74.1629 103.32 74.2188 95.6194 74.2188 89.3973C74.2188 85.0446 72.7679 82.2824 71.0659 80.8315C81.3895 79.6875 92.2712 78.2645 92.2712 60.4353C92.2712 55.3571 90.4576 52.8181 87.5 49.5536C87.9743 48.3538 89.5647 43.4152 87.0257 36.9978C83.1473 35.798 74.2746 41.9922 74.2746 41.9922C70.5915 40.9598 66.6016 40.4297 62.6674 40.4297C58.7333 40.4297 54.7433 40.9598 51.0603 41.9922C51.0603 41.9922 42.1875 35.798 38.3092 36.9978C35.7701 43.3873 37.3326 48.3259 37.8348 49.5536C34.8772 52.8181 33.4821 55.3571 33.4821 60.4353C33.4821 78.1808 43.8895 79.6875 54.2132 80.8315C52.8739 82.0313 51.6741 84.096 51.2556 87.0536C48.6049 88.2534 41.8248 90.3181 37.779 83.1752C35.24 78.7667 30.6641 78.404 30.6641 78.404C26.144 78.3482 30.3571 81.25 30.3571 81.25C33.3705 82.6451 35.4911 88.0022 35.4911 88.0022C38.1975 96.2891 51.144 93.4989 51.144 93.4989C51.144 97.3772 51.1998 103.683 51.1998 104.827C51.1998 106.027 50.3627 107.478 47.9911 107.059C29.5759 100.893 16.6853 83.3705 16.6853 62.8906C16.6853 37.2768 36.2723 17.8292 61.8862 17.8292C87.5 17.8292 108.259 37.2768 108.259 62.8906C108.287 83.3705 95.7868 100.921 77.3716 107.059ZM50 90.0112C49.4699 90.1228 48.9676 89.8996 48.9118 89.5368C48.856 89.1183 49.2188 88.7556 49.7489 88.644C50.279 88.5882 50.7813 88.8114 50.8371 89.1741C50.9208 89.5368 50.558 89.8996 50 90.0112ZM47.3493 89.7601C47.3493 90.1228 46.9308 90.4297 46.3728 90.4297C45.7589 90.4855 45.3404 90.1786 45.3404 89.7601C45.3404 89.3973 45.7589 89.0904 46.317 89.0904C46.8471 89.0346 47.3493 89.3415 47.3493 89.7601ZM43.5268 89.4531C43.4152 89.8159 42.8571 89.9833 42.3828 89.8159C41.8527 89.7042 41.49 89.2857 41.6016 88.923C41.7132 88.5603 42.2712 88.3929 42.7455 88.5045C43.3036 88.6719 43.6663 89.0904 43.5268 89.4531ZM40.0949 87.9464C39.8438 88.2534 39.3136 88.1976 38.8951 87.779C38.4766 87.4163 38.365 86.8862 38.644 86.6351C38.8951 86.3281 39.4252 86.3839 39.8438 86.8025C40.2065 87.1652 40.346 87.7232 40.0949 87.9464ZM37.5558 85.4074C37.3047 85.5748 36.8304 85.4074 36.5234 84.9888C36.2165 84.5703 36.2165 84.096 36.5234 83.9007C36.8304 83.6496 37.3047 83.8449 37.5558 84.2634C37.8627 84.6819 37.8627 85.1842 37.5558 85.4074ZM35.7422 82.7009C35.4911 82.952 35.0725 82.8125 34.7656 82.5335C34.4587 82.1708 34.4029 81.7522 34.654 81.5569C34.9051 81.3058 35.3237 81.4453 35.6306 81.7243C35.9375 82.0871 35.9933 82.5056 35.7422 82.7009ZM33.8728 80.6362C33.7612 80.8873 33.3984 80.9431 33.0915 80.7478C32.7288 80.5804 32.5614 80.2734 32.673 80.0223C32.7846 79.8549 33.0915 79.7712 33.4542 79.9107C33.817 80.106 33.9844 80.4129 33.8728 80.6362Z" fill="white"/>
</svg>
