<svg width="125" height="125" viewBox="0 0 125 125" fill="none" xmlns="http://www.w3.org/2000/svg">
<path d="M111.328 0H13.6719C6.12111 0 0 6.12111 0 13.6719V111.328C0 118.879 6.12111 125 13.6719 125H111.328C118.879 125 125 118.879 125 111.328V13.6719C125 6.12111 118.879 0 111.328 0Z" fill="#092E20"/>
<path d="M91.0027 45.9947V78.3316C91.0027 89.4742 90.1873 94.8179 87.742 99.4375C85.4769 103.877 82.4876 106.685 76.3284 109.765L63.3743 103.605C69.5345 100.707 72.5237 98.1705 74.4256 94.274C76.4188 90.2891 77.0535 85.669 77.0535 73.5313V45.9947H91.0027ZM68.8109 24.4517V89.0215C61.6551 90.3799 56.4012 90.9234 50.6946 90.9234C33.6649 90.9234 24.7879 83.2246 24.7879 68.459C24.7879 54.2373 34.2088 44.9986 48.7918 44.9986C51.0565 44.9986 52.7776 45.1792 54.8611 45.7227V24.4527H68.8113L68.8109 24.4517ZM50.1512 56.23C43.0858 56.23 39.0091 60.5782 39.0091 68.1866C39.0091 75.6153 42.9046 79.691 50.0609 79.691C51.5999 79.691 52.8685 79.6006 54.8611 79.3296V56.9541C53.2308 56.4112 51.8724 56.23 50.1512 56.23ZM91.0027 24.5259V38.8384H77.0535V24.5264L91.0027 24.5259Z" fill="#FFFFFD"/>
</svg>
