<svg width="125" height="125" viewBox="0 0 125 125" fill="none" xmlns="http://www.w3.org/2000/svg">
<path d="M106.506 106.508H87.9849V77.5022C87.9849 70.5857 87.8613 61.6819 78.3521 61.6819C68.7056 61.6819 67.2295 69.2181 67.2295 76.9988V106.506H48.709V46.8592H66.4888V55.0105H66.7378C68.5171 51.9681 71.0884 49.4652 74.1777 47.7684C77.2669 46.0717 80.7586 45.2446 84.2808 45.3753C103.053 45.3753 106.514 57.7229 106.514 73.7864L106.506 106.508V106.508ZM27.8105 38.7063C21.8745 38.7073 17.0615 33.8958 17.0605 27.9598C17.0596 22.0237 21.8706 17.2108 27.8066 17.2098C33.7427 17.2083 38.5557 22.0198 38.5566 27.9559C38.5572 30.8065 37.4253 33.5405 35.41 35.5566C33.3948 37.5727 30.6612 38.7057 27.8105 38.7063M37.0713 106.508H18.5308V46.8592H37.0708V106.508L37.0713 106.508ZM115.739 0.0090976H9.22412C4.18994 -0.047543 0.0615234 3.98517 0 9.01935V115.979C0.0595703 121.015 4.1875 125.052 9.22363 124.999H115.739C120.786 125.062 124.93 121.025 125 115.979V9.01105C124.928 3.9671 120.784 -0.0651211 115.739 0.000796822" fill="#0A66C2"/>
</svg>
