<svg width="125" height="125" viewBox="0 0 125 125" fill="none" xmlns="http://www.w3.org/2000/svg">
<path d="M11.3761 112.504L0 0H125L113.609 112.487L62.4241 125L11.3761 112.504Z" fill="#E44F26"/>
<path d="M62.4986 115.438L103.862 105.326L113.592 9.20144H62.4986V115.438Z" fill="#F1662A"/>
<path d="M62.4986 50.9236H41.7919L40.3642 36.7941H62.4986V22.995H23.2621L27.4794 64.7227H62.4986V50.9236ZM62.4986 86.7584L62.4277 86.7763L45.0017 82.6289L43.8878 71.6245H28.178L30.3702 93.2852L62.4277 101.133L62.4986 101.116V86.7584Z" fill="#EBEBEB"/>
<path d="M62.4442 50.9236V64.7227H81.7132L79.9007 82.62L62.4442 86.7718V101.129L94.5271 93.2852L94.76 90.9548L98.4355 54.6289L98.8203 50.9236H62.4442ZM62.4442 22.995V36.7941H100.243L101.645 22.995H62.4442Z" fill="white"/>
</svg>
