<svg width="125" height="125" viewBox="0 0 125 125" fill="none" xmlns="http://www.w3.org/2000/svg">
<path d="M0 0H125V125H0V0Z" fill="#F7DF1E"/>
<path d="M32.8679 104.459L42.4334 98.6696C44.2791 101.942 45.9578 104.71 49.9846 104.71C53.8445 104.71 56.2786 103.2 56.2786 97.3273V57.3869H68.0251V97.4933C68.0251 109.66 60.8933 115.198 50.488 115.198C41.0911 115.198 35.6365 110.331 32.8674 104.458M74.4055 103.2L83.97 97.6623C86.488 101.774 89.7605 104.795 95.5496 104.795C100.417 104.795 103.521 102.361 103.521 99.0046C103.521 94.9772 100.332 93.5505 94.9622 91.2018L92.0261 89.9421C83.551 86.3351 77.9295 81.8039 77.9295 72.2385C77.9295 63.4279 84.6419 56.715 95.1306 56.715C102.598 56.715 107.969 59.3166 111.828 66.113L102.681 71.987C100.667 68.3791 98.4866 66.9528 95.1301 66.9528C91.6897 66.9528 89.5081 69.1344 89.5081 71.987C89.5081 75.5109 91.6897 76.9382 96.7239 79.1198L99.6604 80.3781C109.646 84.6579 115.267 89.0207 115.267 98.8371C115.267 109.41 106.961 115.199 95.801 115.199C84.8933 115.199 77.845 109.997 74.405 103.2" fill="black"/>
</svg>
