<svg width="125" height="125" viewBox="0 0 125 125" fill="none" xmlns="http://www.w3.org/2000/svg">
<path d="M37.1854 82.5699L40.9843 100.671C41.8378 104.781 42.1938 107.65 42.0512 109.285C44.1289 101.114 45.5805 92.2084 46.4065 82.5699H50.9744C49.0103 98.2616 46.4197 109.664 43.2041 116.778C40.6987 122.259 37.954 125 34.9652 125C34.1683 125 33.1859 124.646 32.0201 123.944V120.162C32.5897 120.285 33.2579 120.35 34.0265 120.35C35.4208 120.35 36.5446 119.783 37.3996 118.65C38.4232 117.27 38.9357 115.719 38.9357 114C38.9357 112.826 38.536 110.417 37.7404 106.773L32.4474 82.5699H37.1854ZM8.11117 71.4442L15.0692 102.621H15.1122L22.113 71.4442H27.8328C29.0853 86.9057 29.825 101.052 30.0521 113.875H25.2298C25.0601 101.888 24.5901 90.6169 23.8215 80.0584H23.7795L16.4362 113.875H12.7638L5.4649 80.0584H5.42193C4.88042 90.1985 4.5396 101.47 4.39751 113.875H0C0.284183 98.7882 0.995372 84.6458 2.13357 71.4442H8.11117Z" fill="#00758F"/>
<path d="M86.0593 70.8137C93.544 70.8137 97.2864 77.836 97.2864 91.8737C97.2864 99.5019 96.1609 105.264 93.9121 109.156C93.5069 109.868 93.0589 110.482 92.5872 111.052L97.8839 114.898L97.8787 114.897L95.9981 119.667L89.1003 113.756C87.957 114.253 86.6989 114.502 85.3281 114.502C81.653 114.502 78.9078 112.929 77.0929 109.787C75.1007 106.312 74.105 100.84 74.105 93.3817C74.105 85.7965 75.2286 80.0564 77.4781 76.1587C79.527 72.5935 82.3878 70.8137 86.0593 70.8137ZM63.1391 70.8754C65.8142 70.8754 68.2466 71.9266 70.4375 74.0215L69.3247 77.6631C67.45 76.4929 65.6015 75.9052 63.7788 75.9052C62.2998 75.9052 61.1601 76.428 60.3656 77.4799C59.5668 78.5226 59.0727 79.8642 59.0727 81.4998C59.0727 84.0132 60.2919 86.1927 62.5432 88.0341C63.2807 88.6262 64.0157 89.225 64.748 89.8307L65.1684 90.1778L65.4204 90.3865C67.1245 91.7973 68.728 93.144 68.728 93.144C70.979 95.4906 72.1011 97.9924 72.1011 102.113C72.1011 105.712 71.2032 108.666 69.4131 110.977C67.6218 113.278 65.2153 114.432 62.2016 114.432C59.383 114.432 56.6513 113.104 54.0052 110.47L55.243 106.825C57.5202 108.501 59.5807 109.339 61.4311 109.339C63.1665 109.339 64.5249 108.77 65.5075 107.646C66.4883 106.514 67.0759 104.935 67.0759 102.934C67.0759 100.414 65.8826 98.2606 63.6933 96.4539C63.0081 95.898 62.3249 95.3366 61.6437 94.7699L61.476 94.6304C61.1679 94.3748 60.8576 94.1159 60.5536 93.8625L60.3888 93.7248C58.9106 92.49 57.6325 91.4112 57.6325 91.4112C55.444 89.0602 54.3465 86.538 54.3465 82.3818C54.3465 78.9446 55.1649 76.1663 56.7992 74.0527C58.4374 71.9345 60.551 70.8754 63.1391 70.8754ZM106.083 71.4433V108.655H115.174V113.874H101.472V71.4433H106.083ZM120.226 108.671V109.553H119.226V113.87H118.462V109.553H117.424V108.671H120.226ZM122.072 108.671L123.031 112.215L123.913 108.671H124.996V113.87H124.276V109.913L123.273 113.87H122.753L121.748 109.913H121.71V113.87H121.028V108.671H122.072ZM85.5886 76.0318C81.1779 76.0318 78.9713 81.3776 78.9713 92.0619C78.9713 98.1821 79.556 102.62 80.7233 105.386C81.8043 107.946 83.4975 109.224 85.8029 109.224C90.2136 109.224 92.4199 103.836 92.4199 93.0665C92.4199 87.032 91.8352 82.6321 90.6694 79.8646C89.5871 77.3104 87.8945 76.0318 85.5886 76.0318Z" fill="#F29111"/>
<path d="M74.0273 2.62916C75.4904 -2.65062 80.6065 1.34776 82.5918 3.19206C83.0784 3.65349 83.6365 4.62835 84.1944 4.98868C85.0648 5.03887 85.9344 5.1389 86.8062 5.19232C88.4415 5.75666 89.9733 6.21773 91.2619 7.29549C97.2502 12.4745 101.148 17.7522 104.736 26.4696C105.503 28.316 105.886 30.3141 106.512 32.3122C107.381 35.2906 108.358 38.417 109.367 41.2333C109.818 42.5685 110.168 44.0532 110.795 45.1808C111.04 45.6963 111.735 45.8484 112.151 46.1563C113.3 47.0301 114.693 47.6934 115.774 48.7188C117.793 50.5674 119.745 52.7702 121.519 55.0254C122.181 55.8959 122.631 57.1282 123.261 58.0489V58.5136C122.702 58.7657 122.145 59.0238 121.587 59.2307C120.368 59.6903 119.289 59.5863 118.107 60.0463C117.376 60.3576 116.469 60.7681 115.703 60.8724L115.774 60.9771C116.225 62.8684 118.663 64.4065 119.779 65.5377C121.133 66.9732 122.388 68.7143 123.398 70.7138C123.747 71.224 124.096 71.6883 124.443 72.1971C124.686 72.7127 124.754 73.3795 125 73.8392V73.9948C124.728 73.8539 124.532 73.585 124.347 73.3039L124.237 73.1343C124.126 72.9658 124.014 72.8001 123.887 72.6635C123.119 71.8927 122.355 70.9705 121.587 70.2538C120.266 69.0226 118.733 68.3081 117.376 67.0722C116.609 66.3548 115.878 65.5377 115.147 64.7166C114.484 63.997 113.754 62.6152 113.338 61.5898C113.092 61.0233 113.058 60.3575 112.778 59.9477C112.828 59.2633 113.255 59.06 113.686 58.8929L113.785 58.8546C113.934 58.7979 114.079 58.7413 114.206 58.6663C116.017 57.5377 118.174 57.1282 120.961 57.2308C120.856 56.2032 119.115 54.9229 118.559 54.3076C117.443 53.1266 116.262 51.8943 115.078 50.8195C114.451 50.2566 113.37 49.8457 112.675 49.3857C111.735 48.8213 109.646 48.2574 109.125 47.1825C108.24 45.488 107.604 43.467 106.987 41.4255L106.819 40.8683C106.763 40.6826 106.706 40.497 106.65 40.3115C105.921 37.853 105.014 35.2899 104.283 32.7726C103.901 31.5446 103.725 30.4669 103.307 29.2891C100.766 22.0617 97.0053 16.0107 92.4459 11.7553C90.9476 10.3706 89.277 9.08924 87.4327 8.21836C86.3875 7.75477 85.1331 8.01112 84.0196 7.65546H83.2867C82.6612 7.39659 82.139 6.42281 81.6509 5.90939C80.573 4.83451 79.4934 4.11278 78.2043 3.34587C77.7527 3.03825 76.4629 2.3219 76.0127 2.88587C75.7339 2.98877 75.5925 3.1433 75.5239 3.55418C75.2465 4.16727 75.4904 5.09086 75.6631 5.65627C76.186 7.29477 76.9165 8.26855 77.5796 9.65321C78.1694 10.8812 78.9021 12.2659 79.3203 13.601C80.2227 16.4711 80.6428 19.651 81.479 22.5207C81.7891 23.5999 82.2796 24.8278 82.731 25.8013C83.1136 26.5739 83.8091 27.1325 84.0196 28.1106C84.439 29.136 83.3916 32.5195 83.1492 33.594C82.2422 37.7985 82.418 43.643 83.4625 47.2875L83.5181 47.4797L83.5738 47.6744C83.9551 49.0092 84.3633 50.4466 85.3773 50.8198C85.4471 50.718 85.3773 50.7714 85.5157 50.718C85.7611 47.897 85.8301 45.1804 86.4923 42.9733C86.8748 41.5933 87.6388 40.6177 88.1625 39.4912C88.5116 39.7981 88.5116 40.7235 88.7196 41.3358C89.1727 42.9242 89.6593 44.6656 90.2179 46.2585C91.3644 49.5391 92.6544 52.7197 94.1161 55.5894C94.6056 56.6144 95.3002 57.7428 95.9267 58.666C96.2058 59.0234 96.5183 59.23 96.728 59.69H96.7963V59.8448C95.7519 59.2794 95.0898 57.6926 94.2568 56.7661C92.6884 55.0247 90.8102 52.4095 89.7291 49.9002C89.277 48.4596 88.7882 47.0789 88.3009 45.6454V45.5418C88.0926 45.9513 88.1624 46.3578 88.0582 46.9774C87.606 49.5391 87.9542 52.4615 86.3875 53.383C84.6116 54.4622 83.2869 51.6416 82.731 50.3598C80.9546 46.1054 80.468 38.9283 81.7207 33.1347C81.9991 31.8522 82.0369 30.3141 82.5227 29.2902C82.4178 28.3644 81.9319 28.1113 81.6509 27.5441C81.1636 26.5746 80.7464 25.4452 80.3648 24.3686C79.6318 22.2654 79.1104 19.7524 78.554 17.4969C78.3093 16.5758 78.2393 15.6511 77.9954 14.7792C77.5793 13.4483 76.8125 12.1131 76.2209 10.9357C75.4199 9.24341 73.0869 5.96353 74.0273 2.62916ZM85.4464 12.6735C85.5394 12.8105 85.6517 12.9302 85.7679 13.0482L85.908 13.1894C86.0948 13.3795 86.2757 13.5795 86.3866 13.852C86.5623 14.2127 86.5951 14.5687 86.8055 14.9301C86.8055 16.1624 86.5623 16.9817 86.0714 17.4922C86.0714 17.4922 86.0379 17.546 86.0035 17.5962C85.7252 16.7748 85.4813 15.9577 85.201 15.137C84.8558 14.4206 84.3677 13.8524 84.0865 13.0338H84.0189V12.9309C84.439 12.7786 84.8558 12.6735 85.4464 12.6735Z" fill="#00758F"/>
</svg>
