<svg width="125" height="125" viewBox="0 0 125 125" fill="none" xmlns="http://www.w3.org/2000/svg">
<path d="M62.0514 0C30.3177 0 32.2991 13.8332 32.2991 13.8332L32.3343 28.1649H62.6172V32.4676H20.3064C20.3064 32.4676 0 30.1526 0 62.3383C0 94.525 17.7239 93.3835 17.7239 93.3835H28.3015V78.4476C28.3015 78.4476 27.7313 60.6315 45.7425 60.6315H75.7778C75.7778 60.6315 92.6525 60.9055 92.6525 44.2378V16.6786C92.6525 16.6786 95.2154 0 62.0514 0ZM45.3534 9.63774C46.069 9.6371 46.7777 9.7783 47.439 10.0533C48.1002 10.3283 48.7011 10.7316 49.2071 11.2402C49.7131 11.7489 50.1143 12.3528 50.3879 13.0175C50.6614 13.6822 50.8019 14.3946 50.8013 15.114C50.8019 15.8333 50.6614 16.5457 50.3879 17.2104C50.1143 17.8751 49.7131 18.479 49.2071 18.9877C48.7011 19.4963 48.1002 19.8997 47.439 20.1746C46.7777 20.4496 46.069 20.5908 45.3534 20.5902C44.6378 20.5908 43.9291 20.4496 43.2678 20.1746C42.6066 19.8997 42.0058 19.4963 41.4997 18.9877C40.9937 18.479 40.5925 17.8751 40.3189 17.2104C40.0454 16.5457 39.9049 15.8333 39.9055 15.114C39.9049 14.3946 40.0454 13.6822 40.3189 13.0175C40.5925 12.3528 40.9937 11.7489 41.4997 11.2402C42.0058 10.7316 42.6066 10.3283 43.2678 10.0533C43.9291 9.7783 44.6378 9.6371 45.3534 9.63774Z" fill="url(#paint0_linear_274_11)"/>
<path d="M62.9491 125C94.6828 125 92.7014 111.167 92.7014 111.167L92.6662 96.8356H62.3828V92.5329H104.694C104.694 92.5329 125 94.8479 125 62.6612C125 30.475 107.276 31.6165 107.276 31.6165H96.6985V46.5519C96.6985 46.5519 97.2687 64.368 79.2575 64.368H49.2222C49.2222 64.368 32.3475 64.094 32.3475 80.7622V108.322C32.3475 108.322 29.7851 125 62.9486 125H62.9491ZM79.6471 115.363C78.9315 115.364 78.2228 115.223 77.5615 114.948C76.9003 114.673 76.2994 114.269 75.7934 113.761C75.2874 113.252 74.8862 112.648 74.6126 111.983C74.339 111.319 74.1986 110.606 74.1992 109.887C74.1985 109.168 74.3389 108.455 74.6125 107.79C74.886 107.126 75.2872 106.522 75.7933 106.013C76.2993 105.504 76.9001 105.101 77.5614 104.826C78.2227 104.551 78.9314 104.41 79.6471 104.41C80.3627 104.41 81.0714 104.551 81.7327 104.826C82.3939 105.101 82.9947 105.504 83.5008 106.013C84.0068 106.521 84.408 107.125 84.6816 107.79C84.9551 108.455 85.0956 109.167 85.095 109.887C85.0956 110.606 84.9551 111.318 84.6816 111.983C84.408 112.648 84.0068 113.252 83.5008 113.76C82.9947 114.269 82.3939 114.672 81.7327 114.947C81.0714 115.222 80.3627 115.364 79.6471 115.363Z" fill="url(#paint1_linear_274_11)"/>
<defs>
<linearGradient id="paint0_linear_274_11" x1="16.1988" y1="15.0487" x2="99.5488" y2="97.7512" gradientUnits="userSpaceOnUse">
<stop stop-color="#387EB8"/>
<stop offset="1" stop-color="#366994"/>
</linearGradient>
<linearGradient id="paint1_linear_274_11" x1="50.033" y1="50.8299" x2="116.884" y2="113.699" gradientUnits="userSpaceOnUse">
<stop stop-color="#FFE052"/>
<stop offset="1" stop-color="#FFC331"/>
</linearGradient>
</defs>
</svg>
