<svg width="125" height="125" viewBox="0 0 125 125" fill="none" xmlns="http://www.w3.org/2000/svg">
<path d="M62.5 0C45.8335 0 35.4165 13.8892 31.25 41.6667C37.5 27.7775 44.7915 22.5692 53.125 26.0417C57.8794 28.0225 61.2778 33.772 65.0396 40.1351C71.1675 50.5021 78.2593 62.5 93.75 62.5C110.417 62.5 120.833 48.6108 125 20.8333C118.75 34.7225 111.458 39.9308 103.125 36.4583C98.3706 34.4775 94.9722 28.728 91.2104 22.3649C85.0825 11.9979 77.9907 0 62.5 0ZM31.25 62.5C14.5835 62.5 4.1665 76.3892 0 104.167C6.25 90.2775 13.5415 85.0692 21.875 88.5417C26.6294 90.5225 30.0278 96.272 33.7895 102.635C39.9175 113.002 47.0093 125 62.5 125C79.1665 125 89.5835 111.111 93.75 83.3333C87.5 97.2225 80.2085 102.431 71.875 98.9583C67.1206 96.9775 63.7222 91.228 59.9605 84.8649C53.8325 74.4979 46.7407 62.5 31.25 62.5Z" fill="url(#paint0_linear_240_23)"/>
<defs>
<linearGradient id="paint0_linear_240_23" x1="-3.4725" y1="40" x2="125" y2="84.445" gradientUnits="userSpaceOnUse">
<stop stop-color="#2298BD"/>
<stop offset="1" stop-color="#0ED7B5"/>
</linearGradient>
</defs>
</svg>
