<svg width="125" height="125" viewBox="0 0 125 125" fill="none" xmlns="http://www.w3.org/2000/svg">
<path d="M25.9629 0C18.8306 0 13.5527 7.83656 13.7891 16.3351C14.0161 24.4996 13.7212 35.0748 11.6006 43.6984C9.47363 52.3471 5.87598 57.8256 0 58.5293V66.4707C5.87598 67.1743 9.47363 72.6529 11.6006 81.3022C13.7212 89.9258 14.0161 100.5 13.7891 108.665C13.5527 117.162 18.8306 125 25.9639 125H99.0464C106.179 125 111.456 117.163 111.219 108.665C110.993 100.5 111.287 89.9258 113.408 81.3022C115.536 72.6535 119.124 67.1737 125 66.4707V58.5293C119.124 57.8256 115.536 52.3471 113.408 43.6984C111.287 35.076 110.993 24.5002 111.219 16.3351C111.456 7.83778 106.179 0 99.0464 0H25.9619H25.9629V0ZM84.7461 76.9454C84.7461 88.6478 77.793 95.7445 66.2539 95.7445H46.6104C46.0485 95.7444 45.5098 95.4641 45.1126 94.9653C44.7153 94.4666 44.4922 93.7902 44.4922 93.0849V31.915C44.4921 31.5657 44.5469 31.2198 44.6533 30.8971C44.7598 30.5743 44.9158 30.2811 45.1126 30.034C45.3093 29.787 45.5429 29.5911 45.8 29.4574C46.057 29.3237 46.3326 29.2548 46.6108 29.2548H66.1416C75.7632 29.2548 82.0776 35.7981 82.0776 45.8431C82.0776 52.8939 77.8296 59.206 72.418 60.3112V60.6795C79.7856 61.694 84.7461 68.0987 84.7461 76.9454V76.9454ZM64.1113 37.686H52.9116V57.5455H62.3452C69.6372 57.5455 73.6587 53.8593 73.6587 47.27C73.6587 41.0958 70.2007 37.686 64.1118 37.686H64.1113ZM52.9116 65.4256V87.311H64.5239C72.1157 87.311 76.1382 83.4868 76.1382 76.2993C76.1382 69.1107 72.0039 65.4244 64.0356 65.4244H52.9116V65.4256Z" fill="#7E13F8"/>
</svg>
