<svg width="320" height="320" fill="none" xmlns="http://www.w3.org/2000/svg"><circle cx="160" cy="160" r="160" fill="#242424"/><path d="M119.939 240.6c-5.334 0-9.707-2.24-13.12-6.72-3.414-4.48-5.334-8.747-5.76-12.8-.427-4.693 0-9.707 1.28-15.04 1.28-5.333 3.093-10.027 5.44-14.08 0-.213-.107-.427-.32-.64v-.96c0-1.067.213-2.133.64-3.2.64-1.28 1.066-2.453 1.28-3.52.64-1.28 1.28-2.667 1.92-4.16a91.099 91.099 0 0 0 2.24-4.8l3.52-7.68.64-2.24c-1.494.853-4.907 2.133-10.24 3.84-5.12 1.493-10.987 2.987-17.6 4.48-6.614 1.493-12.694 2.773-18.24 3.84-5.334 1.067-8.96 1.6-10.88 1.6-1.707 0-3.414-.96-5.12-2.88-1.494-1.92-2.774-4.053-3.84-6.4-.854-2.56-1.387-4.373-1.6-5.44v-.64c0-1.707.426-2.56 1.28-2.56 1.066-.213 2.026-.107 2.88.32.426.213 1.066.64 1.92 1.28 1.066.64 1.706.96 1.92.96h2.88l2.56-.64 6.4-1.28a86.795 86.795 0 0 1 6.08-1.6l31.36-6.72c2.773-.427 6.293-1.28 10.56-2.56 4.266-1.493 7.253-3.307 8.96-5.44 1.28-1.707 2.88-4.053 4.8-7.04a912.167 912.167 0 0 0 6.08-9.6 302.24 302.24 0 0 0 6.72-10.88 213.909 213.909 0 0 1 6.4-10.24c-2.347 1.067-3.52 1.173-3.52.32 0-1.067.106-1.707.32-1.92.853-1.28 2.346-3.307 4.48-6.08 2.133-2.773 4.16-5.013 6.08-6.72-8.534 1.92-18.027 4.373-28.48 7.36a1707.833 1707.833 0 0 0-31.36 8.64 3246.91 3246.91 0 0 1-30.72 7.68c-9.6 2.133-17.494 3.2-23.68 3.2-2.774 0-5.76-.427-8.96-1.28-3.2-.853-5.867-2.56-8-5.12-1.28-1.493-2.347-4.053-3.2-7.68-.854-3.84-1.28-6.4-1.28-7.68 0-3.2 1.706-6.4 5.12-9.6 3.413-3.2 7.36-5.867 11.84-8 4.48-2.347 8.213-3.307 11.2-2.88 2.986-2.347 7.466-4.48 13.44-6.4 6.186-2.133 11.306-3.2 15.36-3.2a21.03 21.03 0 0 0 5.12-.64 21.038 21.038 0 0 1 5.12-.64c1.28-.427 2.453-.64 3.52-.64.64 0 1.813.213 3.52.64 1.92.213 3.2.533 3.84.96l-.32-.32c.853.213 1.28.64 1.28 1.28 0 .427-.427.64-1.28.64a58.079 58.079 0 0 1-10.56 2.24 86.363 86.363 0 0 0-10.24 1.92c-7.68 2.133-15.894 5.227-24.64 9.28-8.747 3.84-16.214 8.107-22.4 12.8-.427.213-.854.96-1.28 2.24-.64 1.28-.96 2.347-.96 3.2.213.427 1.493.853 3.84 1.28 2.346.427 3.84.64 4.48.64h5.12c1.92-.213 3.733-.427 5.44-.64 6.4-.853 13.44-1.813 21.12-2.88 7.893-1.28 15.36-2.56 22.4-3.84 7.04-1.28 12.586-2.347 16.64-3.2 13.013-3.413 24.746-5.973 35.2-7.68 10.666-1.707 22.506-3.947 35.52-6.72 2.133-.64 5.76-1.067 10.88-1.28 5.12-.213 9.386-.747 12.8-1.6 5.546-.427 10.24-.747 14.08-.96 4.053-.213 8.853-.32 14.4-.32 3.413 0 7.146.64 11.2 1.92 4.266 1.067 7.786 2.453 10.56 4.16 2.56 1.493 5.44 4.053 8.64 7.68 3.413 3.413 6.293 7.147 8.64 11.2 2.56 3.84 3.946 7.147 4.16 9.92.426 4.267-.107 7.253-1.6 8.96-1.494 1.707-3.52 2.88-6.08 3.52-2.347.427-4.8 1.387-7.36 2.88a71.209 71.209 0 0 1-4.16 2.56c-1.28.64-2.667.96-4.16.96h-1.92v-.64h-.32v-1.92h.96c3.413-2.347 6.826-5.547 10.24-9.6 3.413-4.267 5.12-8.427 5.12-12.48 0-3.627-1.6-6.507-4.8-8.64-2.987-2.347-6.827-4.053-11.52-5.12a59.8 59.8 0 0 0-13.76-2.24c-4.48-.427-8.32-.64-11.52-.64-6.614 0-13.867.213-21.76.64-7.68.213-14.72 1.173-21.12 2.88h-.96c2.133 1.707 3.306 3.84 3.52 6.4 0 .64-.96 2.24-2.88 4.8a90.169 90.169 0 0 1-5.76 7.68c-1.92 2.56-3.414 4.267-4.48 5.12-1.494.64-2.347.64-2.56 0v.32c0 .64-.107 1.387-.32 2.24h-3.2c0 2.133-1.067 4.053-3.2 5.76-2.134 1.493-3.84 3.093-5.12 4.8-.854 1.067-1.28 2.453-1.28 4.16-1.28.213-2.987 1.387-5.12 3.52a53.566 53.566 0 0 0-5.44 6.4c-1.494 2.133-2.347 3.947-2.56 5.44.64 0 1.066.107 1.28.32l.64.32c2.56-.213 5.44-.533 8.64-.96 3.413-.427 6.4-.64 8.96-.64.64 0 1.28.107 1.92.32h1.92c2.986 0 5.973-.107 8.96-.32 2.986-.213 5.973-.32 8.96-.32 1.28 0 3.413.32 6.4.96 3.2.64 6.506 1.493 9.92 2.56 3.413 1.067 6.293 2.347 8.64 3.84 2.56 1.28 3.84 2.667 3.84 4.16l.32 1.92c-5.12-2.347-10.134-3.947-15.04-4.8a85.802 85.802 0 0 0-14.72-1.28c-8.534 0-16.427.427-23.68 1.28-7.254.64-13.654 2.667-19.2 6.08-5.547 3.2-10.027 8.747-13.44 16.64a19.671 19.671 0 0 0-1.6 6.08c-.214 1.92-.64 3.84-1.28 5.76a731.164 731.164 0 0 1-5.12 13.44c-1.707 4.907-2.56 9.813-2.56 14.72 0 2.56.106 5.44.32 8.64.426 3.2 1.28 6.187 2.56 8.96 3.626.213 6.293-.747 8-2.88l6.08-6.08c1.066-1.493 2.666-2.24 4.8-2.24-.854 3.413-2.987 7.253-6.4 11.52-3.414 4.267-7.254 6.4-11.52 6.4Z" fill="url(#a)"/><path d="M195.545 274.25c-5.167 0-9.333-.667-12.5-2-3-1.167-6.667-3-11-5.5-5.5-3.333-10-7.25-13.5-11.75-3.333-4.667-5.25-9.917-5.75-15.75-.167-1.667 0-3.583.5-5.75.333-2.167.583-4.083.75-5.75.667-6.667 3.417-13.667 8.25-21 5-7.333 11.25-14.417 18.75-21.25 7.667-7 15.917-13.333 24.75-19 9-5.667 18-10.167 27-13.5 9.167-3.333 17.667-5 25.5-5 3 0 5.833.833 8.5 2.5 2.833 1.667 4.333 4 4.5 7 0 .5-.167 1.583-.5 3.25.333-.5.75-1.083 1.25-1.75l2-2c1-1.167 2.417-2.833 4.25-5a95.08 95.08 0 0 0 5.5-6.5c1.667-2.333 2.417-4.083 2.25-5.25 0-.667-.333-1.5-1-2.5l-1.5-2.25c1.833.5 3.833 1.417 6 2.75 2.333 1.333 4.333 2.75 6 4.25 1.667 1.5 2.5 3 2.5 4.5v1.25c-.167.667-1.083 1.833-2.75 3.5a67.7 67.7 0 0 1-5 4.5c-1.667 1.5-2.917 2.583-3.75 3.25-2.167 2-4.667 4.917-7.5 8.75a74.138 74.138 0 0 0-7.25 12c-2 4-3 7.583-3 10.75 0 1.833.333 3.333 1 4.5.667 1.167 1.833 2.667 3.5 4.5h-1v.75c-2.833-1-6.083-2.667-9.75-5s-5.5-4.917-5.5-7.75v-3.5l.5-2c.167-.667.75-2.25 1.75-4.75 1.167-2.667 2.25-4.75 3.25-6.25a9.68 9.68 0 0 1-1.25.5c-.333.167-.833.25-1.5.25l-.25-2c2.5-2.5 3.75-5.5 3.75-9 0-2.333-.833-3.833-2.5-4.5-1.667-.833-3.917-1.25-6.75-1.25-.5 0-1 .083-1.5.25h-1.25c-6.667 1.167-12.417 2.917-17.25 5.25-4.667 2.167-9.167 4.833-13.5 8-4.167 3-8.75 6.5-13.75 10.5-2.167 1.667-4 3.333-5.5 5-1.333 1.5-2.833 3.25-4.5 5.25l-3.5 3.5a77.433 77.433 0 0 1-3.75 3.5 82.749 82.749 0 0 0-4 3.75c-1.167 1.167-2.167 2.333-3 3.5a325.642 325.642 0 0 0-5.75 7.75c-2 2.833-2.917 5.833-2.75 9-1.5 1.167-2.75 3.083-3.75 5.75-.833 2.667-1.5 5.583-2 8.75-.333 3-.5 5.667-.5 8 0 4.167.917 8.583 2.75 13.25 2 4.667 5.5 7.917 10.5 9.75 1.833.667 3.75 1 5.75 1h5.5c.667 0 1.917-.083 3.75-.25 2-.333 3.083-.667 3.25-1 4.667-.333 9-1.333 13-3 4-1.833 8.083-3.667 12.25-5.5 1.833-.667 4.25-1.833 7.25-3.5 3.167-1.667 6.5-3.5 10-5.5 3.667-2 7.083-3.917 10.25-5.75 3.167-2 5.583-3.5 7.25-4.5 1.333-.833 2.5-1.75 3.5-2.75 1.167-1 2.333-1.833 3.5-2.5.5-.333 1.083-.75 1.75-1.25l2.5-2c1-.833 2-1.583 3-2.25a55.026 55.026 0 0 0 3.25-2.5 280.087 280.087 0 0 1 6-4.5c2-1.333 3.5-2.083 4.5-2.25v.25h.75c-.667 2.667-1.833 4.667-3.5 6-1.5 1.167-3.083 2.583-4.75 4.25-6.333 6.167-12.75 11.833-19.25 17s-13.667 9.917-21.5 14.25c-1.167.667-2.5 1.25-4 1.75-1.333.333-2.667.917-4 1.75v.25h-1c-4.5 2.833-10 5.25-16.5 7.25-6.333 2.167-12.333 3.25-18 3.25Z" fill="url(#b)"/><defs><linearGradient id="a" x1="56.179" y1="159.861" x2="194.847" y2="163.89" gradientUnits="userSpaceOnUse"><stop stop-color="#FFAD31"/><stop offset=".504" stop-color="#FFE600"/><stop offset="1" stop-color="#23E5FF"/></linearGradient><linearGradient id="b" x1="169.387" y1="215.861" x2="249.518" y2="217.205" gradientUnits="userSpaceOnUse"><stop stop-color="#FFAD31"/><stop offset=".504" stop-color="#FFE600"/><stop offset="1" stop-color="#23E5FF"/></linearGradient></defs></svg>