<svg width="125" height="125" viewBox="0 0 125 125" fill="none" xmlns="http://www.w3.org/2000/svg">
<path d="M11.3719 112.504L0 0H125L113.613 112.487L62.424 125L11.3719 112.504Z" fill="#1572B6"/>
<path d="M62.4987 115.438L103.865 105.326L113.596 9.20144H62.4987V115.438Z" fill="#33A9DC"/>
<path d="M62.4987 49.9599H83.2072L84.635 35.8305H62.4987V22.0313H101.738L97.5208 63.759H62.4987V49.9599Z" fill="white"/>
<path d="M62.5961 85.7951L62.5252 85.8129L45.0977 81.6611L43.9838 70.6567H28.2728L30.4651 92.3218L62.5202 100.17L62.5961 100.152V85.7951Z" fill="#EBEBEB"/>
<path d="M81.8746 63.1736L79.9911 81.6513L62.5383 85.803V100.16L94.6187 92.3209L97.5756 63.1736H81.8746Z" fill="white"/>
<path d="M62.5523 22.0313V35.8305H24.7505L23.348 22.0313H62.5523ZM62.4966 49.9599V63.759H45.2868L43.8894 49.9599H62.4966Z" fill="#EBEBEB"/>
</svg>
