<svg width="125" height="125" viewBox="0 0 125 125" fill="none" xmlns="http://www.w3.org/2000/svg">
<path d="M31.25 125C48.5 125 62.5 115.667 62.5 104.167V83.3335H31.25C14 83.3335 0 92.6668 0 104.167C0 115.667 14 125 31.25 125Z" fill="#0ACF83"/>
<path d="M0 62.4995C0 50.9995 14 41.6662 31.25 41.6662H62.5V83.3327H31.25C14 83.3327 0 73.9994 0 62.4995Z" fill="#A259FF"/>
<path d="M0 20.8333C0 9.33331 14 0 31.25 0H62.5V41.6662H31.25C14 41.6662 0 32.3332 0 20.8333Z" fill="#F24E1E"/>
<path d="M62.5 0H93.75C111 0 125 9.33331 125 20.8333C125 32.3332 111 41.6665 93.75 41.6665L62.5 41.6662V0Z" fill="#FF7262"/>
<path d="M125 62.4995C125 73.9994 111 83.3327 93.75 83.3327C76.5 83.3327 62.5 73.9994 62.5 62.4995C62.5 50.9995 76.5 41.6665 93.75 41.6665C111 41.6665 125 50.9995 125 62.4995Z" fill="#1ABCFE"/>
</svg>
