<svg width="125" height="125" viewBox="0 0 125 125" fill="none" xmlns="http://www.w3.org/2000/svg">
<path d="M122.643 56.9316L68.0665 2.35734C64.9254 -0.785781 59.8277 -0.785781 56.6827 2.35734L45.3497 13.6906L59.7262 28.0673C63.067 26.9384 66.8981 27.6957 69.5612 30.3588C72.237 33.0391 72.9889 36.9029 71.8327 40.2545L85.6877 54.1103C89.0397 52.9555 92.9074 53.7025 95.5847 56.3842C99.3264 60.1245 99.3264 66.1867 95.5847 69.9294C91.842 73.6726 85.7799 73.6726 82.0353 69.9294C79.2209 67.112 78.5255 62.9786 79.9503 59.5112L67.0294 46.5901L67.028 80.5932C67.9646 81.0563 68.8201 81.6681 69.5612 82.4047C73.3029 86.145 73.3029 92.2076 69.5612 95.9533C65.8185 99.6946 59.7535 99.6946 56.0162 95.9533C52.2745 92.2076 52.2745 86.1455 56.0162 82.4052C56.9129 81.5081 57.9785 80.7976 59.1515 80.3148V45.9949C57.9768 45.5153 56.9106 44.8045 56.0162 43.9045C53.1813 41.0734 52.4996 36.9136 53.9523 33.4326L39.7803 19.259L2.3584 56.6792C-0.786134 59.8252 -0.786134 64.9234 2.3584 68.0671L56.9357 122.642C60.0777 125.786 65.1744 125.786 68.3204 122.642L122.642 68.3205C125.786 65.1759 125.786 60.0747 122.642 56.9316" fill="#DE4C36"/>
</svg>
