<svg width="125" height="125" viewBox="0 0 125 125" fill="none" xmlns="http://www.w3.org/2000/svg">
<path d="M102.775 40.515C101.445 40.002 100.103 39.5268 98.7515 39.0898C98.9785 38.047 99.1875 37.0169 99.3731 36.0049C102.419 19.3865 100.428 5.99836 93.6265 1.59035C87.1055 -2.63547 76.4409 1.7709 65.6704 12.3063C64.6089 13.3465 63.571 14.4167 62.5576 15.5158C61.8792 14.7849 61.1888 14.0682 60.4868 13.3661C49.1987 2.10129 37.8843 -2.64644 31.0903 1.7742C24.5752 6.01318 22.646 18.599 25.3882 34.3486C25.661 35.9085 25.969 37.4603 26.312 39.0025C24.7104 39.514 23.165 40.0584 21.686 40.638C8.45166 45.8242 0 53.9515 0 62.3817C0 71.0885 9.07324 79.8217 22.8574 85.1171C23.9749 85.5447 25.1017 85.9408 26.2368 86.3053C25.8682 87.9663 25.5409 89.6387 25.2554 91.3203C22.6411 106.797 24.6826 119.085 31.1802 123.297C37.8911 127.647 49.1548 123.176 60.1221 112.4C61.0114 111.524 61.8811 110.624 62.7305 109.699C63.8279 110.889 64.9546 112.044 66.1094 113.164C76.7334 123.439 87.2256 127.588 93.7168 123.364C100.421 119.002 102.601 105.801 99.7715 89.7397C99.5486 88.4815 99.2987 87.2294 99.022 85.9848C99.813 85.7213 100.589 85.4502 101.346 85.1681C115.676 79.8321 125 71.2048 125 62.3817C125 53.9207 116.275 45.7386 102.775 40.515V40.515ZM99.667 79.4715C98.9834 79.7256 98.2822 79.9709 97.5674 80.2097C95.9853 74.5806 93.8506 68.5953 91.2378 62.4108C93.731 56.3739 95.7837 50.4649 97.3213 44.8725C98.6001 45.2885 99.8408 45.727 101.037 46.1897C112.604 50.6658 119.66 57.2827 119.66 62.3817C119.66 67.8127 112.04 74.8632 99.667 79.4715V79.4715ZM94.5332 90.9054C95.7842 98.0069 95.9624 104.428 95.1338 109.448C94.3896 113.959 92.8926 116.965 91.041 118.17C87.102 120.733 78.6777 117.402 69.5923 108.614C68.5182 107.573 67.4701 106.499 66.4492 105.393C69.9717 101.063 73.4917 96.0301 76.9272 90.44C82.9702 89.8374 88.6792 88.8517 93.8564 87.5066C94.1058 88.6334 94.3315 89.7666 94.5332 90.9054V90.9054ZM42.6152 117.727C38.7666 119.255 35.7012 119.298 33.8481 118.098C29.9053 115.542 28.2661 105.675 30.502 92.4398C30.7677 90.8759 31.072 89.3205 31.4145 87.7755C36.5347 89.0488 42.2021 89.9642 48.2593 90.5163C51.7183 95.9862 55.3398 101.014 58.9897 105.416C58.2141 106.26 57.4201 107.082 56.6084 107.882C51.7583 112.646 46.8984 116.027 42.6152 117.727V117.727ZM24.585 79.438C18.4897 77.0963 13.4561 74.0532 10.0059 70.7323C6.90527 67.7485 5.34033 64.7855 5.34033 62.3817C5.34033 57.2657 12.126 50.7404 23.4438 46.3055C24.8174 45.7677 26.2549 45.26 27.7466 44.7836C29.311 50.5022 31.3628 56.4815 33.8389 62.5277C31.3306 68.6633 29.2495 74.7381 27.6699 80.5241C26.6338 80.1906 25.6052 79.8284 24.585 79.438V79.438ZM30.6289 33.1956C28.2798 19.7021 29.8398 9.52335 33.7661 6.96865C37.9478 4.24767 47.1948 8.12718 56.9414 17.8542C57.577 18.49 58.2022 19.1386 58.8169 19.7998C55.1851 24.1831 51.5967 29.1734 48.1685 34.611C42.2896 35.2234 36.6621 36.2069 31.4883 37.5246C31.1695 36.0901 30.883 34.6468 30.6289 33.1961V33.1956ZM84.5483 48.1604C83.3263 45.7879 82.0589 43.4452 80.7471 41.1341C84.7353 41.701 88.5566 42.4534 92.145 43.3732C91.0679 47.2544 89.7251 51.3117 88.1445 55.4717C86.9892 53.0079 85.7903 50.5704 84.5483 48.1604V48.1604ZM62.5601 24.0892C65.0229 27.0885 67.4897 30.4367 69.916 34.0698C64.9941 33.8086 60.0641 33.8075 55.1421 34.0665C57.5708 30.4669 60.0586 27.123 62.5601 24.0892ZM40.4307 48.2016C39.2043 50.5921 38.0277 53.0145 36.9019 55.4667C35.3472 51.3216 34.0166 47.2456 32.9302 43.3095C36.4966 42.4128 40.2998 41.6796 44.2627 41.1231C42.9362 43.4484 41.6585 45.8084 40.4307 48.2011V48.2016ZM44.3765 84.0672C40.2822 83.5536 36.4219 82.8582 32.8564 81.9856C33.96 77.9793 35.3198 73.8166 36.9082 69.5826C38.0385 72.0366 39.22 74.4605 40.4517 76.8521C41.7183 79.3107 43.0298 81.7189 44.3765 84.0672ZM62.7075 101.097C60.1763 98.0278 57.6519 94.6323 55.1865 90.9806C57.5801 91.0859 60.02 91.1397 62.5 91.1397C65.0479 91.1397 67.5664 91.0755 70.0454 90.9515C67.6113 94.6691 65.1538 98.0695 62.7075 101.097ZM88.1948 69.3663C89.8657 73.647 91.2739 77.7878 92.3921 81.7255C88.7681 82.6552 84.855 83.4037 80.7319 83.9597C82.0531 81.6056 83.3325 79.2222 84.5693 76.8109C85.8268 74.3599 87.0356 71.8778 88.1948 69.3663V69.3663ZM79.9439 73.8122C78.0504 77.5092 76.0505 81.136 73.9473 84.6868C70.1375 84.9901 66.3193 85.1408 62.5 85.1385C58.6099 85.1385 54.8262 85.0024 51.1826 84.7368C49.0245 81.1941 46.9864 77.561 45.0728 73.8452H45.0732C43.1686 70.149 41.3894 66.3729 39.7397 62.5249C41.3852 58.6761 43.159 54.8982 45.0571 51.1992L45.0566 51.1997C46.9541 47.4998 48.9759 43.8822 51.1177 40.3548C54.835 40.0387 58.647 39.874 62.4995 39.874H62.5C66.3701 39.874 70.187 40.0403 73.9033 40.3586C76.0235 43.8808 78.0324 47.4859 79.9263 51.1674C81.8308 54.8582 83.6279 58.6177 85.3149 62.4399C83.6453 66.3011 81.8538 70.0943 79.9439 73.8122V73.8122ZM90.9595 6.78974C95.145 9.50304 96.7729 20.4446 94.1431 34.7932C93.9751 35.7086 93.7866 36.641 93.5815 37.5866C88.395 36.2409 82.7637 35.2404 76.8677 34.6186C73.4331 29.1212 69.874 24.1233 66.3013 19.7965C67.2376 18.782 68.1962 17.7938 69.1763 16.8329C78.4048 7.80668 87.0298 4.24273 90.9595 6.78974V6.78974ZM62.5 49.836C68.6646 49.836 73.6621 55.453 73.6621 62.3817C73.6621 69.3104 68.6646 74.9274 62.5 74.9274C56.3354 74.9274 51.3379 69.3104 51.3379 62.3817C51.3379 55.453 56.3354 49.836 62.5 49.836V49.836Z" fill="#00D8FF"/>
</svg>
