<svg width="256" height="140" viewBox="0 0 256 140" fill="none" xmlns="http://www.w3.org/2000/svg">
<path d="M78.066 92.5879C90.884 92.5879 101.275 82.1969 101.275 69.3779C101.275 56.5609 90.884 46.1699 78.065 46.1699C65.248 46.1699 54.857 56.5599 54.857 69.3789C54.857 82.1969 65.248 92.5879 78.066 92.5879ZM23.209 139.005C36.027 139.005 46.418 128.615 46.418 115.796C46.418 102.979 36.027 92.5879 23.208 92.5879C10.392 92.5879 0 102.978 0 115.796C0 128.614 10.39 139.005 23.209 139.005ZM232.791 139.005C245.609 139.005 256 128.615 256 115.796C256 102.979 245.61 92.5879 232.791 92.5879C219.973 92.5879 209.582 102.978 209.582 115.796C209.582 128.614 219.973 139.006 232.792 139.006L232.791 139.005Z" fill="black"/>
<path d="M156.565 70.357C155.823 62.603 155.445 56.149 149.505 51.613C141.983 45.869 133.461 49.596 122.965 45.807C112.65 43.312 105 34.155 105 23.24C105 10.405 115.578 0 128.626 0C138.291 0 146.6 5.707 150.26 13.883C155.861 24.523 152.22 35.35 159.258 40.804C167.591 47.262 178.826 42.533 191.362 48.652C195.363 50.4882 198.771 53.4063 201.202 57.077C203.684 60.8255 205.005 65.2225 205 69.718C205 80.633 197.35 89.791 187.036 92.286C176.539 96.075 168.017 92.348 160.495 98.092C152.035 104.552 156.564 115.359 149.669 126.774C145.756 134.292 137.802 139.437 128.626 139.437C115.578 139.437 105 129.032 105 116.197C105 106.874 110.582 98.833 118.638 95.131C131.174 89.011 142.408 93.741 150.742 87.283C155.549 83.557 156.565 77.81 156.565 70.357Z" fill="#D0021B"/>
</svg>
