<svg width="256" height="230" viewBox="0 0 256 230" fill="none" xmlns="http://www.w3.org/2000/svg">
<path d="M157.977 142.487L153.067 151.014C152.34 152.276 151.294 153.324 150.033 154.053C148.772 154.781 147.341 155.165 145.885 155.165H108.267C106.811 155.165 105.38 154.781 104.119 154.053C102.859 153.324 101.812 152.276 101.085 151.014L96.1741 142.487H157.977ZM171.724 118.617L163.066 133.651H91.0861L82.4281 118.617H171.724ZM163.384 95.275L171.738 109.781H82.4141L90.7681 95.275H163.384ZM145.884 73.209C147.34 73.2087 148.771 73.5923 150.032 74.3211C151.293 75.0498 152.34 76.098 153.067 77.36L158.295 86.439H95.8571L101.086 77.36C101.813 76.0981 102.86 75.05 104.12 74.3213C105.381 73.5926 106.812 73.2089 108.268 73.209H145.885H145.884Z" fill="#00435B"/>
<path d="M53.523 69.2522C49.356 49.0462 48.461 33.5482 51.155 22.2952C52.757 15.6022 55.685 10.1422 60.139 6.20225C64.841 2.04325 70.785 0.00224567 77.465 0.00224567C88.483 0.00224567 100.067 5.02725 112.445 14.5722C117.495 18.4662 122.735 23.1592 128.177 28.6542C128.611 28.0972 129.1 27.5712 129.646 27.0842C145.032 13.3742 157.986 4.85425 169.066 1.57025C175.654 -0.383754 181.839 -0.569754 187.471 1.32625C193.417 3.32625 198.154 7.46325 201.497 13.2562C207.013 22.8172 208.467 35.3802 206.411 50.8932C205.573 57.2162 204.14 64.1032 202.115 71.5662C202.879 71.6582 203.645 71.8282 204.403 72.0792C223.924 78.5492 237.748 85.5052 246.117 93.4562C251.097 98.1862 254.348 103.452 255.524 109.282C256.764 115.435 255.554 121.606 252.216 127.395C246.71 136.943 236.586 144.472 222.164 150.436C216.374 152.831 209.821 155 202.5 156.951C202.834 157.705 203.094 158.506 203.267 159.346C207.434 179.552 208.328 195.05 205.635 206.303C204.033 212.996 201.104 218.456 196.65 222.396C191.949 226.555 186.004 228.596 179.325 228.596C168.306 228.596 156.723 223.571 144.345 214.026C139.241 210.09 133.943 205.339 128.438 199.768C127.859 200.674 127.157 201.496 126.354 202.21C110.968 215.922 98.014 224.44 86.934 227.725C80.346 229.679 74.161 229.865 68.529 227.969C62.583 225.969 57.846 221.832 54.503 216.039C48.987 206.478 47.533 193.915 49.589 178.402C50.458 171.851 51.965 164.693 54.107 156.917C53.2533 156.831 52.4116 156.651 51.597 156.38C32.076 149.91 18.252 142.954 9.88305 135.003C4.90305 130.273 1.65205 125.007 0.476047 119.177C-0.763953 113.024 0.446047 106.852 3.78405 101.063C9.29005 91.5162 19.414 83.9862 33.836 78.0232C39.799 75.5562 46.57 73.3302 54.156 71.3342C53.8814 70.6612 53.6695 69.9642 53.523 69.2522Z" fill="#002B3B"/>
<path d="M189.651 161.333C190.583 161.168 191.542 161.367 192.33 161.891C193.119 162.414 193.676 163.22 193.886 164.143L193.909 164.255L194.116 165.33C200.826 200.606 196.099 218.245 179.936 218.245C164.123 218.245 143.992 203.194 119.544 173.092C119.109 172.557 118.834 171.911 118.748 171.227C118.663 170.543 118.771 169.849 119.06 169.224C119.349 168.598 119.808 168.066 120.385 167.689C120.961 167.311 121.632 167.102 122.321 167.087H122.435L123.723 167.096C134.011 167.152 144.012 166.793 153.727 166.02C165.194 165.107 177.169 163.545 189.651 161.333ZM78.6498 134.667L78.7118 134.772L79.3578 135.899C84.5348 144.899 89.9278 153.441 95.5378 161.526C102.146 171.046 109.576 180.684 117.828 190.44C118.44 191.164 118.75 192.096 118.692 193.043C118.635 193.989 118.215 194.877 117.519 195.522L117.426 195.605L116.596 196.32C89.2888 219.717 71.5408 224.388 63.3518 210.332C55.3348 196.575 58.2418 171.559 72.0708 135.285C72.3156 134.642 72.7355 134.081 73.2829 133.665C73.8303 133.248 74.4833 132.994 75.168 132.929C75.8527 132.865 76.5418 132.994 77.1571 133.301C77.7725 133.608 78.2896 134.081 78.6498 134.667ZM203.507 82.6128L203.619 82.6498L204.647 83.0038C238.352 94.7288 251.157 107.614 243.063 121.659C235.147 135.395 212.133 145.397 174.022 151.663C173.331 151.777 172.622 151.691 171.978 151.416C171.335 151.142 170.782 150.689 170.386 150.112C169.99 149.535 169.767 148.856 169.743 148.157C169.718 147.457 169.894 146.765 170.249 146.162C175.707 136.876 180.624 127.638 184.998 118.445C189.958 108.02 194.613 96.8288 198.963 84.8748C199.279 84.006 199.91 83.2876 200.731 82.8625C201.552 82.4373 202.503 82.3365 203.395 82.5798L203.507 82.6128ZM84.4498 76.7098C84.8669 76.9548 85.2317 77.2796 85.5233 77.6656C85.8149 78.0516 86.0276 78.4913 86.1493 78.9595C86.2709 79.4277 86.2991 79.9153 86.2323 80.3944C86.1655 80.8735 86.0049 81.3348 85.7598 81.7518C80.2998 91.0368 75.3838 100.276 71.0098 109.469C66.0498 119.894 61.3948 131.084 57.0448 143.039C56.7218 143.927 56.0702 144.656 55.2245 145.077C54.3789 145.498 53.4038 145.578 52.5008 145.301L52.3888 145.264L51.3608 144.909C17.6558 133.185 4.85079 120.299 12.9448 106.255C20.8608 92.5178 43.8748 82.5168 81.9858 76.2508C82.8358 76.1108 83.7078 76.2728 84.4498 76.7098ZM192.656 18.9618C200.673 32.7198 197.766 57.7358 183.937 94.0098C183.692 94.6525 183.272 95.2138 182.725 95.6301C182.177 96.0464 181.524 96.3012 180.84 96.3655C180.155 96.4298 179.466 96.3011 178.85 95.994C178.235 95.6869 177.718 95.2137 177.358 94.6278L177.296 94.5228L176.65 93.3958C171.473 84.3958 166.08 75.8538 160.47 67.7688C153.862 58.2488 146.432 48.6108 138.18 38.8548C137.567 38.1308 137.258 37.1985 137.315 36.2519C137.373 35.3053 137.793 34.4173 138.489 33.7728L138.582 33.6898L139.412 32.9748C166.719 9.57784 184.467 4.90684 192.656 18.9618ZM77.4538 10.5898C93.2678 10.5898 113.399 25.6398 137.846 55.7418C138.28 56.2769 138.556 56.923 138.641 57.6068C138.727 58.2906 138.619 58.9846 138.329 59.6101C138.04 60.2356 137.581 60.7674 137.005 61.1451C136.429 61.5228 135.758 61.7313 135.069 61.7468H134.955L133.667 61.7388C123.38 61.6828 113.378 62.0418 103.664 62.8148C92.1958 63.7278 80.2208 65.2898 67.7388 67.5018C66.8072 67.6667 65.848 67.4668 65.0598 66.9437C64.2715 66.4206 63.7148 65.6143 63.5048 64.6918L63.4808 64.5788L63.2738 63.5048C56.5638 28.2278 61.2898 10.5898 77.4538 10.5898Z" fill="#FF4154"/>
<path d="M111.297 73.6699H142.873C145.142 73.6698 147.37 74.2684 149.333 75.4053C151.297 76.5423 152.925 78.1772 154.054 80.1449L169.909 107.771C171.03 109.724 171.62 111.936 171.62 114.188C171.62 116.44 171.03 118.652 169.909 120.605L154.054 148.231C152.925 150.199 151.297 151.833 149.333 152.97C147.37 154.107 145.142 154.706 142.873 154.706H111.297C106.679 154.706 102.414 152.236 100.115 148.231L84.2621 120.605C83.1414 118.652 82.5516 116.44 82.5516 114.188C82.5516 111.936 83.1414 109.724 84.2621 107.771L100.116 80.1449C101.245 78.1772 102.874 76.5423 104.837 75.4054C106.801 74.2685 109.028 73.6698 111.297 73.6699ZM138.06 82.0079C142.68 82.0079 146.948 84.4809 149.245 88.4889L160.301 107.777C161.42 109.728 162.008 111.939 162.008 114.188C162.008 116.437 161.42 118.647 160.301 120.599L149.245 139.887C148.116 141.856 146.487 143.492 144.523 144.63C142.559 145.768 140.33 146.367 138.06 146.367H116.11C111.49 146.367 107.222 143.895 104.925 139.887L93.8691 120.599C92.7506 118.647 92.1621 116.437 92.1621 114.188C92.1621 111.939 92.7506 109.728 93.8691 107.777L104.925 88.4889C106.054 86.5199 107.683 84.8839 109.646 83.746C111.61 82.6082 113.84 82.009 116.109 82.0089L138.06 82.0079ZM132.873 91.1279H121.297C119.029 91.1279 116.802 91.726 114.839 92.862C112.876 93.9979 111.248 95.6315 110.118 97.5979L104.276 107.765C103.153 109.719 102.562 111.934 102.562 114.188C102.562 116.442 103.153 118.657 104.276 120.611L110.118 130.779C111.248 132.745 112.876 134.379 114.839 135.515C116.802 136.651 119.029 137.249 121.297 137.249H132.873C137.489 137.249 141.753 134.781 144.052 130.779L149.894 120.611C151.017 118.657 151.608 116.442 151.608 114.188C151.608 111.934 151.017 109.719 149.894 107.765L144.052 97.5969C142.922 95.6305 141.294 93.9969 139.331 92.861C137.369 91.725 135.141 91.1279 132.873 91.1279ZM127.879 99.8569C132.491 99.8569 136.752 102.321 139.052 106.317L139.881 107.757C141.007 109.713 141.6 111.931 141.6 114.188C141.6 116.445 141.007 118.663 139.881 120.619L139.052 122.059C137.922 124.023 136.294 125.654 134.332 126.788C132.371 127.922 130.145 128.519 127.879 128.519H126.291C124.025 128.519 121.8 127.922 119.838 126.788C117.877 125.654 116.249 124.023 115.118 122.059L114.289 120.619C113.163 118.663 112.571 116.445 112.571 114.188C112.571 111.931 113.163 109.713 114.289 107.757L115.118 106.317C116.249 104.353 117.877 102.722 119.838 101.588C121.8 100.454 124.025 99.8569 126.291 99.8569H127.879ZM127.087 108.456C126.08 108.455 125.091 108.72 124.218 109.223C123.346 109.726 122.621 110.45 122.117 111.322C121.614 112.193 121.349 113.182 121.349 114.188C121.349 115.194 121.614 116.183 122.117 117.054C122.621 117.926 123.345 118.65 124.217 119.153C125.089 119.657 126.079 119.922 127.086 119.922C128.093 119.922 129.082 119.657 129.954 119.153C130.826 118.65 131.55 117.926 132.054 117.054C132.558 116.183 132.823 115.194 132.823 114.188C132.823 113.182 132.558 112.193 132.054 111.322C131.55 110.45 130.826 109.727 129.954 109.224C129.083 108.721 128.094 108.456 127.087 108.456ZM80.5781 114.188H90.8981Z" fill="#FFD94C"/>
</svg>
