<svg width="451" height="337" viewBox="0 0 451 337" fill="none" xmlns="http://www.w3.org/2000/svg">
<path d="M173.874 311.444C164.392 311.444 156.618 307.462 150.549 299.498C144.481 291.533 141.068 283.948 140.309 276.742C139.551 268.398 140.309 259.486 142.585 250.004C144.861 240.523 148.084 232.179 152.256 224.973C152.256 224.594 152.066 224.215 151.687 223.835C151.687 223.077 151.687 222.508 151.687 222.129C151.687 220.232 152.066 218.336 152.825 216.44C153.963 214.164 154.721 212.078 155.101 210.182C156.238 207.907 157.376 205.441 158.514 202.787C160.031 199.752 161.358 196.908 162.496 194.253L168.754 180.6C169.512 177.945 169.892 176.618 169.892 176.618C167.237 178.135 161.169 180.41 151.687 183.444C142.585 186.099 132.155 188.754 120.398 191.409C108.641 194.064 97.8324 196.339 87.9716 198.235C78.4902 200.132 72.0428 201.08 68.6294 201.08C65.5953 201.08 62.5613 199.373 59.5272 195.96C56.8724 192.547 54.5968 188.754 52.7005 184.582C51.1835 180.031 50.2353 176.807 49.8561 174.911V173.773C49.8561 170.739 50.6146 169.222 52.1316 169.222C54.0279 168.843 55.7346 169.032 57.2516 169.791C58.0102 170.17 59.1479 170.929 60.665 172.067C62.5613 173.204 63.699 173.773 64.0783 173.773C65.9746 173.773 67.6813 173.773 69.1983 173.773C70.7153 173.394 72.2324 173.015 73.7494 172.635C77.542 171.877 81.3346 171.118 85.1272 170.36C88.9198 169.222 92.5228 168.274 95.9361 167.515L151.687 155.569C156.618 154.81 162.875 153.293 170.461 151.018C178.046 148.363 183.355 145.139 186.389 141.347C188.665 138.312 191.509 134.141 194.923 128.831C198.336 123.521 201.939 117.832 205.732 111.764C209.903 105.317 213.886 98.8695 217.678 92.4221C221.471 85.9747 225.263 79.9065 229.056 74.2176C224.884 76.1139 222.798 76.3036 222.798 74.7865C222.798 72.8902 222.988 71.7525 223.367 71.3732C224.884 69.0976 227.539 65.4947 231.332 60.5643C235.124 55.6339 238.727 51.6517 242.141 48.6176C226.97 52.031 210.093 56.3925 191.509 61.7021C172.926 66.6325 154.342 71.7525 135.758 77.0621C116.416 81.9925 98.2116 86.5436 81.145 90.7154C64.0783 94.508 50.0457 96.4043 39.0472 96.4043C34.1168 96.4043 28.8072 95.6458 23.1183 94.1288C17.4294 92.6117 12.6887 89.5777 8.89608 85.0265C6.62053 82.3717 4.72423 77.8206 3.2072 71.3732C1.69016 64.5465 0.931641 59.9954 0.931641 57.7199C0.931641 52.031 3.96571 46.3421 10.0339 40.6532C16.102 34.9643 23.1183 30.2236 31.0828 26.431C39.0472 22.2591 45.6842 20.5525 50.9939 21.311C56.3035 17.1391 64.2679 13.3465 74.8872 9.9332C85.8857 6.14059 94.9879 4.24429 102.194 4.24429C105.228 4.24429 108.262 3.86503 111.296 3.10652C114.33 2.34801 117.364 1.96876 120.398 1.96876C122.674 1.21023 124.76 0.830963 126.656 0.830963C127.794 0.830963 129.88 1.21023 132.914 1.96876C136.327 2.34801 138.603 2.9169 139.741 3.67541L139.172 3.10652C140.689 3.48578 141.447 4.2443 141.447 5.38208C141.447 6.14059 140.689 6.51985 139.172 6.51985C133.103 8.41614 126.846 9.74356 120.398 10.5021C114.33 11.2606 108.262 12.3984 102.194 13.9154C88.5405 17.708 73.939 23.2073 58.3894 30.4132C42.8398 37.2399 29.5657 44.8251 18.5672 53.1688C17.8087 53.548 17.0502 54.8754 16.2916 57.151C15.1539 59.4265 14.585 61.3228 14.585 62.8399C14.9642 63.5984 17.2398 64.3569 21.4116 65.1154C25.5835 65.8739 28.2383 66.2532 29.3761 66.2532C32.4102 66.2532 35.4442 66.2532 38.4783 66.2532C41.8916 65.8739 45.1153 65.4947 48.1494 65.1154C59.5272 63.5984 72.0427 61.8917 85.6961 59.9954C99.7287 57.7199 113.003 55.4443 125.518 53.1688C138.034 50.8932 147.895 48.9969 155.101 47.4799C178.235 41.4117 199.095 36.8606 217.678 33.8265C236.641 30.7925 257.69 26.8102 280.825 21.8799C284.618 20.7421 291.065 19.9836 300.167 19.6043C309.269 19.225 316.855 18.2769 322.923 16.7599C332.783 16.0013 341.127 15.4325 347.954 15.0532C355.16 14.6739 363.693 14.4843 373.554 14.4843C379.622 14.4843 386.259 15.6221 393.465 17.8976C401.05 19.7939 407.308 22.2591 412.238 25.2932C416.789 27.948 421.909 32.4991 427.598 38.9465C433.666 45.0147 438.786 51.6517 442.958 58.8576C447.509 65.6843 449.975 71.5628 450.354 76.4932C451.112 84.0784 450.164 89.388 447.509 92.4221C444.855 95.4562 441.252 97.5421 436.701 98.6799C432.529 99.4384 428.167 101.145 423.616 103.8C421.341 105.317 418.875 106.834 416.221 108.351C413.945 109.489 411.48 110.058 408.825 110.058H405.412V108.92H404.843V105.507H406.549C412.618 101.335 418.686 95.6458 424.754 88.4399C430.822 80.8547 433.856 73.4591 433.856 66.2532C433.856 59.8058 431.012 54.6858 425.323 50.8932C420.013 46.7213 413.186 43.6873 404.843 41.791C396.878 39.5154 388.724 38.188 380.381 37.8087C372.416 37.0502 365.589 36.671 359.901 36.671C348.143 36.671 335.249 37.0502 321.216 37.8087C307.563 38.188 295.047 39.8947 283.669 42.9287H281.963C285.755 45.9628 287.841 49.7554 288.221 54.3065C288.221 55.4443 286.514 58.2888 283.101 62.8399C280.066 67.391 276.653 71.9421 272.861 76.4932C269.447 81.0443 266.792 84.0784 264.896 85.5954C262.241 86.7332 260.724 86.7332 260.345 85.5954V86.1643C260.345 87.3021 260.155 88.6295 259.776 90.1465H254.087C254.087 93.9391 252.191 97.3525 248.398 100.387C244.606 103.041 241.572 105.886 239.296 108.92C237.779 110.816 237.021 113.281 237.021 116.315C234.745 116.695 231.711 118.781 227.918 122.573C224.505 125.987 221.281 129.779 218.247 133.951C215.592 137.744 214.075 140.967 213.696 143.622C214.834 143.622 215.592 143.812 215.972 144.191L217.109 144.76C221.661 144.381 226.781 143.812 232.469 143.053C238.538 142.295 243.847 141.915 248.398 141.915C249.536 141.915 250.674 142.105 251.812 142.484C252.949 142.484 254.087 142.484 255.225 142.484C260.535 142.484 265.844 142.295 271.154 141.915C276.464 141.536 281.773 141.347 287.083 141.347C289.358 141.347 293.151 141.915 298.461 143.053C304.149 144.191 310.028 145.708 316.096 147.604C322.164 149.501 327.284 151.776 331.456 154.431C336.007 156.707 338.283 159.172 338.283 161.827L338.852 165.24C329.749 161.068 320.837 158.224 312.114 156.707C303.391 155.19 294.668 154.431 285.945 154.431C270.775 154.431 256.742 155.19 243.847 156.707C230.952 157.844 219.575 161.447 209.714 167.515C199.853 173.204 191.889 183.065 185.821 197.098C184.303 200.511 183.355 204.114 182.976 207.907C182.597 211.32 181.838 214.733 180.701 218.147C178.046 225.352 175.012 233.317 171.598 242.04C168.564 250.763 167.047 259.486 167.047 268.209C167.047 272.76 167.237 277.88 167.616 283.569C168.375 289.258 169.892 294.567 172.167 299.498C178.615 299.877 183.355 298.17 186.389 294.378C189.803 290.964 193.406 287.361 197.198 283.569C199.095 280.914 201.939 279.587 205.732 279.587C204.215 285.655 200.422 292.481 194.354 300.067C188.286 307.652 181.459 311.444 173.874 311.444Z" fill="url(#paint0_linear_263_38)"/>
<path d="M298.579 336.689C291.23 336.689 285.305 335.741 280.801 333.844C276.534 332.185 271.319 329.578 265.156 326.022C257.334 321.281 250.934 315.711 245.956 309.311C241.216 302.674 238.49 295.207 237.779 286.911C237.542 284.541 237.779 281.815 238.49 278.733C238.964 275.652 239.319 272.926 239.556 270.555C240.505 261.074 244.416 251.118 251.29 240.689C258.401 230.259 267.29 220.185 277.956 210.467C288.86 200.511 300.593 191.504 313.156 183.444C325.956 175.385 338.756 168.985 351.556 164.244C364.593 159.504 376.682 157.133 387.823 157.133C392.09 157.133 396.119 158.318 399.912 160.689C403.942 163.059 406.075 166.378 406.312 170.644C406.312 171.355 406.075 172.896 405.601 175.267C406.075 174.555 406.667 173.726 407.379 172.778C408.327 171.829 409.275 170.881 410.223 169.933C411.645 168.274 413.66 165.904 416.267 162.822C419.112 159.741 421.719 156.659 424.09 153.578C426.46 150.259 427.527 147.77 427.29 146.111C427.29 145.163 426.816 143.978 425.867 142.555C424.919 141.133 424.208 140.066 423.734 139.355C426.342 140.066 429.186 141.37 432.267 143.267C435.586 145.163 438.43 147.178 440.801 149.311C443.171 151.444 444.356 153.578 444.356 155.711V157.489C444.119 158.437 442.816 160.096 440.445 162.467C438.312 164.6 435.942 166.733 433.334 168.867C430.964 171 429.186 172.541 428.001 173.489C424.919 176.333 421.364 180.481 417.334 185.933C413.305 191.385 409.867 197.074 407.023 203C404.179 208.689 402.756 213.785 402.756 218.289C402.756 220.896 403.23 223.029 404.179 224.689C405.127 226.348 406.786 228.481 409.156 231.089H407.734V232.155C403.704 230.733 399.082 228.363 393.867 225.044C388.653 221.726 386.045 218.052 386.045 214.022V211.889C386.045 210.704 386.045 209.755 386.045 209.044C386.282 208.096 386.519 207.148 386.756 206.2C386.993 205.252 387.823 203 389.245 199.444C390.904 195.652 392.445 192.689 393.867 190.555C393.393 190.792 392.801 191.029 392.09 191.267C391.616 191.504 390.904 191.622 389.956 191.622L389.601 188.778C393.156 185.222 394.934 180.955 394.934 175.978C394.934 172.659 393.749 170.526 391.379 169.578C389.008 168.392 385.808 167.8 381.779 167.8C381.067 167.8 380.356 167.918 379.645 168.155C378.934 168.155 378.342 168.155 377.867 168.155C368.386 169.815 360.208 172.304 353.334 175.622C346.697 178.704 340.297 182.496 334.134 187C328.208 191.267 321.69 196.244 314.579 201.933C311.497 204.304 308.89 206.674 306.756 209.044C304.86 211.178 302.727 213.667 300.356 216.511C298.697 218.17 297.038 219.829 295.379 221.489C293.719 223.148 291.942 224.807 290.045 226.467C288.149 228.126 286.253 229.904 284.356 231.8C282.697 233.459 281.275 235.118 280.09 236.778C277.719 239.859 274.993 243.533 271.912 247.8C269.067 251.829 267.764 256.096 268.001 260.6C265.867 262.259 264.09 264.985 262.667 268.778C261.482 272.57 260.534 276.718 259.823 281.222C259.349 285.489 259.112 289.281 259.112 292.6C259.112 298.526 260.416 304.807 263.023 311.444C265.867 318.081 270.845 322.704 277.956 325.311C280.564 326.259 283.29 326.733 286.134 326.733C288.979 326.733 291.586 326.733 293.956 326.733C294.904 326.733 296.682 326.615 299.29 326.378C302.134 325.904 303.675 325.43 303.912 324.955C310.549 324.481 316.712 323.059 322.401 320.689C328.09 318.081 333.897 315.474 339.823 312.867C342.43 311.918 345.867 310.259 350.134 307.889C354.638 305.518 359.379 302.911 364.356 300.067C369.571 297.222 374.43 294.496 378.934 291.889C383.438 289.044 386.875 286.911 389.245 285.489C391.142 284.304 392.801 283 394.223 281.578C395.882 280.155 397.542 278.97 399.201 278.022C399.912 277.548 400.742 276.955 401.69 276.244C402.875 275.296 404.06 274.348 405.245 273.4C406.667 272.215 408.09 271.148 409.512 270.2C411.171 269.015 412.712 267.829 414.134 266.644C417.216 264.274 420.06 262.141 422.667 260.244C425.512 258.348 427.645 257.281 429.067 257.044V257.4H430.134C429.186 261.192 427.527 264.037 425.156 265.933C423.023 267.592 420.771 269.607 418.401 271.978C409.393 280.748 400.267 288.807 391.023 296.155C381.779 303.504 371.586 310.259 360.445 316.422C358.786 317.37 356.89 318.2 354.756 318.911C352.86 319.385 350.964 320.215 349.067 321.4V321.755H347.645C341.245 325.785 333.423 329.222 324.179 332.067C315.171 335.148 306.638 336.689 298.579 336.689Z" fill="url(#paint1_linear_263_38)"/>
<defs>
<linearGradient id="paint0_linear_263_38" x1="56.6687" y1="228.279" x2="390.367" y2="231.75" gradientUnits="userSpaceOnUse">
<stop stop-color="#FFAD31"/>
<stop offset="0.503724" stop-color="#FFE600"/>
<stop offset="1" stop-color="#23E5FF"/>
</linearGradient>
<linearGradient id="paint1_linear_263_38" x1="56.6687" y1="228.279" x2="390.367" y2="231.75" gradientUnits="userSpaceOnUse">
<stop stop-color="#FFAD31"/>
<stop offset="0.503724" stop-color="#FFE600"/>
<stop offset="1" stop-color="#23E5FF"/>
</linearGradient>
</defs>
</svg>
